<svg width="110" height="110" xmlns="http://www.w3.org/2000/svg" xml:space="preserve" version="1.1">

 <g>
  <title>Layer 1</title>
  <path id="svg_1" fill="#231F20" d="m84.11331,77.44037l-22.501,-22.502l22.379,-22.379c1.825,-1.826 1.825,-4.786 0,-6.611c-1.826,-1.825 -4.785,-1.825 -6.611,0l-22.379,22.379l-22.378,-22.379c-1.826,-1.825 -4.785,-1.825 -6.611,0c-1.826,1.826 -1.826,4.786 0,6.611l22.378,22.379l-22.503,22.502c-1.826,1.826 -1.826,4.785 0,6.611c0.913,0.913 2.109,1.369 3.306,1.369s2.393,-0.456 3.306,-1.369l22.502,-22.502l22.501,22.502c0.913,0.913 2.109,1.369 3.306,1.369s2.393,-0.456 3.306,-1.369c1.824,-1.825 1.824,-4.785 -0.001,-6.611z"/>
 </g>
</svg>